<svg xmlns="http://www.w3.org/2000/svg" viewBox="0 0 263.25 99.24"><defs><style>.cls-1{fill:#fff;fill-rule:evenodd;}</style></defs><title>Negative-Isotype_1</title><g id="Layer_2" data-name="Layer 2"><g id="Layer_7" data-name="Layer 7"><path class="cls-1" d="M24,80,24,80,38.57,94.57a18.64,18.64,0,0,0,25-.27L77.89,80l8.86-8.85,28.74-28.75L126,31.86a18.68,18.68,0,0,0,1.58-24.61l-.3-.37-.3-.36-.32-.36c-.1-.12-.21-.24-.32-.35L126,5.46l-.34-.33-.35-.33L125,4.49l-.36-.31-.37-.29A18.67,18.67,0,0,0,99.61,5.47L77.35,27.72l0,0-8.12,8.12h0l-5,5v0a18.64,18.64,0,0,1-26.07.54v0l-3.23-3.23h0l-3.07-3.07A18.68,18.68,0,0,0,7.25,33.48l-.37.3c-.12.09-.24.2-.36.3l-.36.31-.35.33-.35.34-.33.34-.33.35-.31.36-.31.36-.29.37A18.67,18.67,0,0,0,5.47,61.45L11,67Z"/><path class="cls-1" d="M105.07,94.57a18.63,18.63,0,0,0,25-.27L144.39,80l8.85-8.85L182,42.36l10.5-10.5a18.67,18.67,0,0,0,1.58-24.61c-.09-.13-.19-.25-.29-.37l-.3-.36-.32-.36c-.11-.12-.21-.24-.32-.35l-.34-.35-.35-.33-.35-.33c-.11-.11-.23-.21-.35-.31l-.37-.31c-.12-.1-.24-.2-.37-.29a18.66,18.66,0,0,0-24.6,1.58L143.85,27.72l0,0-2.5,2.5L91.92,79.65h0l-.07.07a1.12,1.12,0,0,0,0,1.59Z"/><path class="cls-1" d="M170.36,94.57a18.64,18.64,0,0,0,25-.27L209.68,80l8.85-8.85,28.75-28.75,10.5-10.5a18.68,18.68,0,0,0,1.59-24.61l-.3-.37-.3-.36-.32-.36c-.1-.12-.21-.24-.32-.35l-.34-.35-.34-.33-.36-.33c-.11-.11-.23-.21-.35-.31l-.37-.31c-.12-.1-.24-.2-.37-.29a18.66,18.66,0,0,0-24.6,1.58L209.14,27.72l0,0-2.5,2.5L157.21,79.65h0l-.07.07a1.12,1.12,0,0,0,0,1.59Z"/></g></g></svg>