<svg xmlns="http://www.w3.org/2000/svg" viewBox="0 0 263.25 167.3"><defs><style>.cls-1{fill:#6b6eb3;}.cls-1,.cls-2,.cls-3{fill-rule:evenodd;}.cls-2{fill:#32c5f4;}.cls-3{fill:#f171ab;}.cls-4{fill:#6b6fb3;}</style></defs><title>Color-Brand_1</title><g id="Layer_2" data-name="Layer 2"><g id="Layer_2-2" data-name="Layer 2"><path class="cls-1" d="M24,80,24,80,38.57,94.57a18.64,18.64,0,0,0,25-.27L77.89,80l8.86-8.85,28.74-28.75L126,31.86a18.68,18.68,0,0,0,1.58-24.61l-.3-.37-.3-.36-.32-.36c-.1-.12-.21-.24-.32-.35L126,5.46l-.34-.33-.35-.33L125,4.49l-.36-.31-.37-.29A18.67,18.67,0,0,0,99.61,5.47L77.35,27.72l0,0-8.12,8.12h0l-5,5v0a18.64,18.64,0,0,1-26.07.54v0l-3.23-3.23h0l-3.07-3.07A18.68,18.68,0,0,0,7.25,33.48l-.37.3c-.12.09-.24.2-.36.3l-.36.31-.35.33-.35.34-.33.34-.33.35-.31.36-.31.36-.29.37A18.67,18.67,0,0,0,5.47,61.45L11,67Z"/><path class="cls-2" d="M105.07,94.57a18.63,18.63,0,0,0,25-.27L144.39,80l8.85-8.85L182,42.36l10.5-10.5a18.67,18.67,0,0,0,1.58-24.61c-.09-.13-.19-.25-.29-.37l-.3-.36-.32-.36c-.11-.12-.21-.24-.32-.35l-.34-.35-.35-.33-.35-.33c-.11-.11-.23-.21-.35-.31l-.37-.31c-.12-.1-.24-.2-.37-.29a18.66,18.66,0,0,0-24.6,1.58L143.85,27.72l0,0-2.5,2.5L91.92,79.65h0l-.07.07a1.12,1.12,0,0,0,0,1.59Z"/><path class="cls-3" d="M170.36,94.57a18.64,18.64,0,0,0,25-.27L209.68,80l8.85-8.85,28.75-28.75,10.5-10.5a18.68,18.68,0,0,0,1.59-24.61l-.3-.37-.3-.36-.32-.36c-.1-.12-.21-.24-.32-.35l-.34-.35-.34-.33-.36-.33c-.11-.11-.23-.21-.35-.31l-.37-.31c-.12-.1-.24-.2-.37-.29a18.66,18.66,0,0,0-24.6,1.58L209.14,27.72l0,0-2.5,2.5L157.21,79.65h0l-.07.07a1.12,1.12,0,0,0,0,1.59Z"/><path class="cls-4" d="M23.71,157.42c0-7.94,7.93-11.48,23.3-11.77H48v-.93c0-5.27-3-8.09-8.59-8.09-4.61,0-7.5,2.24-9.95,5.13a1.18,1.18,0,0,1-2,0L24.72,139c-.65-.73-.58-1.3.07-2.1,3.82-3.75,7.94-6.13,15.22-6.13,9.75,0,15,5.12,15,13.93V165.5c0,.65-.86,1.22-2.16,1.22H51.42c-2.31,0-3-1.22-3.32-5.48V161a15,15,0,0,1-12.56,6.14C28.11,167.16,23.71,163.26,23.71,157.42ZM48,152.8v-2.89l-2,.07c-10.1.36-15.37,2.24-15.37,7,0,3.11,2.53,5.13,6.64,5.13C43.41,162.11,48,158.28,48,152.8Z"/><path class="cls-4" d="M63.76,164.06V119.75c0-1.88,1-2.6,2.45-2.6h2.31c1.52,0,2.38.72,2.38,2.6v44.31c0,1.94-.94,2.59-2.45,2.59H66.21C64.77,166.65,63.76,166,63.76,164.06Z"/><path class="cls-4" d="M80.36,164.06V119.75c0-1.88,1-2.6,2.45-2.6h2.31c1.51,0,2.38.72,2.38,2.6v44.31c0,1.94-.94,2.59-2.45,2.59H82.81C81.37,166.65,80.36,166,80.36,164.06Z"/><path class="cls-4" d="M93.71,135.12v-1.23c0-1.51.65-2.31,2.52-2.31h3.1c1.74-8,2.17-8.66,4-8.66h.79c1.3,0,2.09.58,2.09,1.23v7.43h8.3c1.88,0,2.53.8,2.53,2.31v1.23c0,1.51-.65,2.31-2.53,2.31h-8.37v18.11c0,4,1.23,5.7,3.9,5.7a7.13,7.13,0,0,0,4.54-1.73c.72-.51,1.45-.07,1.81.65l1.44,3a1.25,1.25,0,0,1-.43,1.8A12.53,12.53,0,0,1,110,167.3c-7.14,0-10.75-4-10.75-11.47v-18.4h-3C94.36,137.43,93.71,136.63,93.71,135.12Z"/><path class="cls-4" d="M120.84,149c0-10.6,7.5-18.18,18.26-18.18,10.6,0,18.11,7.65,18.11,18.33S149.7,167.3,139,167.3,120.84,159.73,120.84,149Zm29.73.15c0-7.22-4.84-12.49-11.55-12.49s-11.61,5.2-11.61,12.34,5,12.49,11.61,12.49S150.57,156.19,150.57,149.12Z"/><path class="cls-4" d="M161.83,149.05c0-11,6.85-18.26,16.45-18.26,5.63,0,9.89,2.6,11.91,5.7V119.75c0-1.88,1-2.6,2.45-2.6H195c1.52,0,2.38.72,2.38,2.6v44.38c0,2-.94,2.59-2.52,2.59h-1.23c-2.09,0-2.89-.93-3.32-3.89v-2a14.08,14.08,0,0,1-12.19,6.49C168.76,167.3,161.83,160,161.83,149.05Zm28.43,2.59v-7.79a10.83,10.83,0,0,0-10.68-7.14c-6.49,0-10.82,4.9-10.82,12.34,0,7.21,4.47,12.34,10.68,12.34C185.06,161.39,190,157.34,190.26,151.64Z"/><path class="cls-4" d="M204.05,149c0-10.6,7.5-18.18,18.25-18.18s18.11,7.65,18.11,18.33-7.5,18.18-18.18,18.18S204.05,159.73,204.05,149Zm29.73.15c0-7.22-4.84-12.49-11.55-12.49s-11.62,5.2-11.62,12.34,5,12.49,11.62,12.49S233.78,156.19,233.78,149.12Z"/></g></g></svg>