<svg xmlns="http://www.w3.org/2000/svg" viewBox="0 0 190 190"><defs><style>.cls-1{fill:#ffd34f;}.cls-2{fill:#6b6eb3;}.cls-2,.cls-3,.cls-4{fill-rule:evenodd;}.cls-3{fill:#32c5f4;}.cls-4{fill:#f171ab;}</style></defs><title>Window-Brand_1</title><g id="Layer_2" data-name="Layer 2"><g id="Layer_4" data-name="Layer 4"><rect class="cls-1" width="190" height="190" rx="38.98"/><path class="cls-2" d="M26,115.67l0,0,9.18,9.19A11.78,11.78,0,0,0,51,124.72l9.05-9,5.59-5.59L83.76,91.94l6.63-6.63a11.78,11.78,0,0,0,1-15.52l-.19-.24L91,69.32l-.2-.22-.21-.22-.21-.22-.22-.21L90,68.24l-.22-.2-.23-.19-.24-.19a11.78,11.78,0,0,0-15.52,1l-14,14h0l-5.12,5.12h0L51.42,91v0A11.76,11.76,0,0,1,35,91.29v0l-2-2h0L31,87.34a11.77,11.77,0,0,0-15.52-1l-.24.18-.23.2-.22.19-.22.21-.22.21-.21.22-.21.22-.2.23-.19.23-.18.23a11.78,11.78,0,0,0,1,15.53l3.51,3.5Z"/><path class="cls-3" d="M77.18,124.89a11.78,11.78,0,0,0,15.76-.17l9.06-9,5.58-5.59,18.14-18.14,6.63-6.63a11.78,11.78,0,0,0,1-15.52l-.19-.24-.19-.23-.2-.22-.2-.22a2.28,2.28,0,0,0-.22-.22l-.21-.21-.23-.21-.22-.2-.23-.19a2.11,2.11,0,0,1-.23-.19,11.79,11.79,0,0,0-15.53,1l-14,14h0l-1.57,1.57L68.89,115.47h0l0,0a.71.71,0,0,0,0,1Z"/><path class="cls-4" d="M118.38,124.89a11.78,11.78,0,0,0,15.76-.17l9.06-9,5.58-5.59,18.14-18.14,6.63-6.63a11.78,11.78,0,0,0,1-15.52l-.19-.24-.19-.23-.2-.22-.2-.22-.22-.22-.21-.21-.23-.21-.22-.2-.23-.19a2.11,2.11,0,0,1-.23-.19,11.79,11.79,0,0,0-15.53,1l-14.05,14h0l-1.57,1.57-31.18,31.18h0l0,0a.71.71,0,0,0,0,1Z"/></g></g></svg>